<svg width="240" height="100" viewBox="0 0 240 100" fill="none" xmlns="http://www.w3.org/2000/svg">
<rect width="240" height="100" rx="10" fill="#090909"/>
<g filter="url(#filter0_ii_44_494)">
<path d="M23.9538 25.3221C23.4352 25.9381 23.1287 26.8941 23.1287 28.1321V72.3641C23.1287 73.6041 23.4352 74.5581 23.9538 75.1741C24.0243 75.2512 24.146 75.2504 24.2155 75.1724L45.9695 50.7582C46.0946 50.6177 46.1637 50.4362 46.1637 50.2481C46.1637 50.0601 46.0946 49.8786 45.9695 49.7381L24.2165 25.323C24.1466 25.2446 24.0242 25.2442 23.9538 25.3221Z" fill="url(#paint0_linear_44_494)"/>
<path d="M53.6888 58.698C53.592 58.7582 53.4659 58.7399 53.3901 58.6548L46.3573 50.7581C46.2322 50.6176 46.1631 50.4361 46.1631 50.248C46.1631 50.06 46.2322 49.8785 46.3573 49.738L53.3922 41.8429C53.4676 41.7583 53.5933 41.741 53.6888 41.802L62.4085 47.362C64.898 48.95 64.898 51.548 62.4085 53.138L53.6888 58.698Z" fill="url(#paint1_linear_44_494)"/>
<g filter="url(#filter1_i_44_494)">
<path d="M48.8109 61.8072C51.3692 60.1757 51.8587 56.6416 49.8401 54.3762C47.8809 52.1773 44.4428 52.1774 42.4837 54.3763L26.6686 72.1268C25.1098 73.8764 25.6799 76.5562 27.6568 75.298L48.8109 61.8072Z" fill="url(#paint2_linear_44_494)"/>
</g>
<path d="M49.8417 46.1207C51.8596 43.855 51.3697 40.3214 48.8115 38.6902L27.6568 25.2006C25.6808 23.9404 25.1101 26.6225 26.6692 28.3722L42.4845 46.1216C44.444 48.3208 47.8827 48.3203 49.8417 46.1207Z" fill="url(#paint3_linear_44_494)"/>
</g>
<path d="M120.272 52.6679C116.314 52.6679 113.087 56.0324 113.087 60.6663C113.087 65.272 116.314 68.6646 120.272 68.6646C124.233 68.6646 127.459 65.272 127.459 60.6663C127.458 56.0324 124.231 52.6679 120.272 52.6679ZM120.272 65.5165C118.103 65.5165 116.233 63.5173 116.233 60.6682C116.233 57.7889 118.105 55.8199 120.272 55.8199C122.442 55.8199 124.312 57.7889 124.312 60.6682C124.312 63.5155 122.442 65.5165 120.272 65.5165ZM104.596 52.6679C100.637 52.6679 97.4107 56.0324 97.4107 60.6663C97.4107 65.272 100.637 68.6646 104.596 68.6646C108.556 68.6646 111.783 65.272 111.783 60.6663C111.783 56.0324 108.556 52.6679 104.596 52.6679ZM104.596 65.5165C102.426 65.5165 100.556 63.5173 100.556 60.6682C100.556 57.7889 102.428 55.8199 104.596 55.8199C106.765 55.8199 108.635 57.7889 108.635 60.6682C108.637 63.5155 106.765 65.5165 104.596 65.5165ZM87.6465 55.1237C86.7097 55.1239 85.9504 55.8834 85.9504 56.8202C85.9504 57.7572 86.7099 58.5167 87.6469 58.5167H89.3782C91.4248 58.5167 93.1718 60.4251 92.057 62.1414C91.9052 62.375 91.7406 62.5902 91.5635 62.7876C90.5065 63.9687 88.8521 65.272 85.9504 65.272C81.4767 65.272 77.9792 61.2418 77.9792 56.243C77.9792 51.2443 81.4767 47.2141 85.9504 47.2141C87.6327 47.2141 88.9985 47.7294 90.1123 48.5034C90.8825 49.0386 91.962 49.0406 92.5875 48.3417C93.1434 47.7206 93.1409 46.7666 92.505 46.2277C90.8325 44.81 88.7172 43.8214 85.9504 43.8214C79.8222 43.8214 74.6702 49.3956 74.6702 56.243C74.6702 63.0904 79.8222 68.6646 85.9504 68.6646C89.2577 68.6646 91.7537 67.4516 93.7045 65.1798C95.7107 62.9381 96.3352 59.7861 96.3352 57.2416C96.3352 56.0095 95.2756 55.1223 94.0434 55.1226L87.6465 55.1237ZM162.209 57.7588C161.613 55.9722 159.795 52.6679 156.081 52.6679C152.393 52.6679 149.328 55.9102 149.328 60.6663C149.328 65.1497 152.366 68.6646 156.432 68.6646C158.887 68.6646 160.568 67.4095 161.588 66.2316C162.1 65.641 161.921 64.7634 161.294 64.2964C160.577 63.7623 159.58 63.9968 158.908 64.5861C158.243 65.1694 157.433 65.5127 156.432 65.5127C153.938 65.5127 154.791 62.2433 157.055 61.1971L161.659 59.0692C162.154 58.8406 162.393 58.2719 162.209 57.7588ZM156.453 58.5671C154.559 59.4454 152.491 57.8036 154.14 56.5248C154.797 56.016 155.544 55.7597 156.19 55.7597C156.436 55.7597 156.675 55.7869 156.902 55.8382C158.362 56.1676 157.81 57.9373 156.453 58.5671ZM144.666 66.6093C144.666 67.4775 145.369 68.1813 146.238 68.1813C147.106 68.1813 147.81 67.4775 147.81 66.6093V46.2435C147.81 45.3753 147.106 44.6715 146.238 44.6715C145.369 44.6715 144.666 45.3753 144.666 46.2435V66.6093ZM139.512 54.3846C139.512 54.4243 139.48 54.4564 139.44 54.4564C139.418 54.4564 139.396 54.4459 139.383 54.4279C138.672 53.499 137.325 52.6679 135.636 52.6679C132.056 52.6679 128.775 56.1828 128.775 60.6983C128.775 65.1817 132.056 68.6665 135.636 68.6665C137.327 68.6665 138.672 67.8353 139.383 66.8789C139.396 66.8606 139.418 66.8498 139.441 66.8498C139.48 66.8498 139.512 66.8818 139.512 66.9212V68.0008C139.512 71.0606 138.048 72.6967 135.69 72.6967C134.454 72.6967 133.52 72.0611 132.881 71.2613C132.332 70.5754 131.403 70.1656 130.606 70.5359C129.894 70.8673 129.544 71.6995 129.942 72.377C130.984 74.1479 132.885 75.8487 135.69 75.8487C139.377 75.8487 142.496 73.4245 142.496 67.5156V54.6472C142.496 53.8231 141.828 53.155 141.004 53.155H140.164C139.805 53.155 139.513 53.4462 139.513 53.8057L139.512 54.3846ZM135.907 65.5165C133.737 65.5165 131.921 63.4854 131.921 60.6983C131.921 57.8792 133.737 55.8199 135.907 55.8199C138.048 55.8199 139.729 57.8792 139.729 60.6983C139.729 63.4854 138.048 65.5165 135.907 65.5165ZM176.943 44.6715C172.787 44.6715 169.417 48.0406 169.417 52.1966V66.6118C169.417 67.4786 170.12 68.1813 170.987 68.1813C171.854 68.1813 172.556 67.4786 172.556 66.6118V63.6591C172.556 61.2376 174.519 59.2746 176.941 59.2746C180.422 59.2746 183.845 56.4593 183.845 51.974C183.845 47.4887 180.423 44.6715 176.943 44.6715ZM177.023 56.0023H176.586C174.36 56.0023 172.556 54.1983 172.556 51.973C172.556 49.7477 174.36 47.9438 176.586 47.9438H177.023C179.371 47.9438 180.704 50.1159 180.704 51.974C180.704 53.7944 179.371 56.0023 177.023 56.0023ZM196.433 52.6266C194.602 52.6266 192.719 53.352 191.546 54.9296C191.048 55.5994 191.42 56.501 192.176 56.8537C192.97 57.2241 193.888 56.803 194.614 56.3124C195.162 55.9427 195.816 55.8011 196.487 55.8011C198.111 55.8011 199.762 56.89 199.789 58.8251C199.789 58.9302 199.673 58.9951 199.581 58.9439C198.952 58.593 197.84 58.1613 196.514 58.1613C193.51 58.1613 190.45 60.0062 190.45 63.4534C190.45 66.5997 192.914 68.6251 195.674 68.6251C197.766 68.6251 198.928 67.5854 199.66 66.3588C199.672 66.338 199.695 66.3251 199.719 66.3251C199.757 66.3251 199.788 66.3558 199.788 66.3937V67.2325C199.788 67.7337 200.194 68.1399 200.695 68.1399H201.304C202.142 68.1399 202.82 67.461 202.82 66.6235V59.126C202.822 54.9548 200.032 52.6266 196.433 52.6266ZM196.053 65.5108C195.026 65.5108 193.59 64.9353 193.59 63.5136C193.59 61.6988 195.378 61.0029 196.921 61.0029C198.743 61.0029 199.821 63.1844 198.519 64.4585C197.841 65.1219 196.964 65.5108 196.053 65.5108ZM215.003 53.14C214.321 53.14 213.713 53.5701 213.486 54.2134L210.283 63.2819C210.272 63.3125 210.243 63.333 210.211 63.333C210.179 63.333 210.15 63.313 210.139 63.2828L206.796 54.1641C206.571 53.549 205.985 53.14 205.33 53.14C204.229 53.14 203.474 54.2486 203.877 55.2732L207.978 65.7011C208.404 66.7829 208.398 67.9867 207.964 69.0648L206.284 73.2323C205.883 74.2266 206.615 75.3108 207.687 75.3108C208.311 75.3108 208.871 74.9281 209.097 74.347L216.503 55.3335C216.914 54.2784 216.136 53.14 215.003 53.14ZM185.579 66.6118C185.579 67.4786 186.281 68.1813 187.148 68.1813C188.015 68.1813 188.718 67.4786 188.718 66.6118V46.241C188.718 45.3742 188.015 44.6715 187.148 44.6715C186.281 44.6715 185.579 45.3742 185.579 46.241V66.6118Z" fill="white"/>
<path d="M85.558 30.7661C85.558 32.3135 85.141 33.5451 84.3052 34.4647C83.3568 35.5579 82.1191 36.1045 80.599 36.1045C79.1427 36.1045 77.9034 35.5505 76.886 34.4426C75.8669 33.3328 75.3574 31.9589 75.3574 30.3192C75.3574 28.6776 75.8669 27.3037 76.886 26.1958C77.9034 25.086 79.1427 24.5321 80.599 24.5321C81.3221 24.5321 82.0132 24.6872 82.669 24.9955C83.1446 25.2199 83.5515 25.4974 83.8892 25.8287C84.1123 26.0476 84.0936 26.4008 83.8833 26.6322C83.6112 26.9316 83.1365 26.904 82.8264 26.6441C82.2285 26.1431 81.4859 25.893 80.5973 25.893C79.5345 25.893 78.6164 26.3029 77.8411 27.1228C77.0659 27.9427 76.6792 29.0081 76.6792 30.3173C76.6792 31.6266 77.0659 32.692 77.8411 33.5119C78.6164 34.3318 79.5345 34.7417 80.5973 34.7417C81.724 34.7417 82.664 34.3299 83.4157 33.5045C83.5347 33.3734 83.6414 33.2297 83.736 33.0735C84.2676 32.1953 83.3837 31.2609 82.3572 31.2609H81.263C80.8953 31.2609 80.5973 30.9629 80.5973 30.5952C80.5973 30.2276 80.8953 29.9296 81.263 29.9296H84.6451C85.131 29.9296 85.558 30.2801 85.558 30.7661Z" fill="white"/>
<path d="M93.3104 25.4582C93.3104 25.834 93.0057 26.1387 92.6299 26.1387H90.4723C89.5025 26.1387 88.7162 26.9249 88.7162 27.8947C88.7162 28.8646 89.5025 29.6508 90.4723 29.6508H92.194C92.5617 29.6508 92.8597 29.9489 92.8597 30.3165C92.8597 30.6842 92.5617 30.9822 92.194 30.9822H90.4723C89.5025 30.9822 88.7162 31.7684 88.7162 32.7383C88.7162 33.7081 89.5025 34.4944 90.4723 34.4944H92.629C93.0053 34.4944 93.3104 34.7994 93.3104 35.1758C93.3104 35.5521 93.0053 35.8571 92.629 35.8571H90.365C88.7384 35.8571 87.4197 34.5385 87.4197 32.9118V27.7231C87.4197 26.0964 88.7384 24.7777 90.365 24.7777H92.6299C93.0057 24.7777 93.3104 25.0824 93.3104 25.4582Z" fill="white"/>
<path d="M98.7771 35.2089C98.7771 35.5669 98.4868 35.8571 98.1288 35.8571C97.7708 35.8571 97.4806 35.5669 97.4806 35.2089V27.5478C97.4806 26.7696 96.8496 26.1387 96.0714 26.1387H95.3427C94.9668 26.1387 94.6622 25.834 94.6622 25.4582C94.6622 25.0824 94.9668 24.7777 95.3426 24.7777H100.915C101.291 24.7777 101.595 25.0824 101.595 25.4582C101.595 25.834 101.291 26.1387 100.915 26.1387H100.186C99.408 26.1387 98.7771 26.7696 98.7771 27.5478V35.2089Z" fill="white"/>
<path d="M107.26 35.8571C106.902 35.8571 106.612 35.5669 106.612 35.2089V25.426C106.612 25.068 106.902 24.7777 107.26 24.7777C107.618 24.7777 107.908 25.068 107.908 25.426V35.2089C107.908 35.5669 107.618 35.8571 107.26 35.8571Z" fill="white"/>
<path d="M113.658 35.2089C113.658 35.5669 113.368 35.8571 113.01 35.8571C112.652 35.8571 112.361 35.5669 112.361 35.2089V27.5478C112.361 26.7696 111.73 26.1387 110.952 26.1387H110.223C109.848 26.1387 109.543 25.834 109.543 25.4582C109.543 25.0824 109.848 24.7777 110.223 24.7777H115.796C116.171 24.7777 116.476 25.0824 116.476 25.4582C116.476 25.834 116.171 26.1387 115.796 26.1387H115.067C114.289 26.1387 113.658 26.7696 113.658 27.5478V35.2089Z" fill="white"/>
<path d="M129.601 34.426C128.609 35.5451 127.376 36.1046 125.901 36.1046C124.426 36.1046 123.194 35.5451 122.203 34.426C121.211 33.307 120.717 31.9369 120.717 30.3174C120.717 28.698 121.211 27.3278 122.203 26.2088C123.194 25.0898 124.426 24.5284 125.901 24.5284C127.368 24.5284 128.598 25.0916 129.594 26.2162C130.589 27.3408 131.087 28.7072 131.087 30.3174C131.087 31.9369 130.591 33.307 129.601 34.426ZM123.16 33.4972C123.907 34.3282 124.82 34.7418 125.901 34.7418C126.982 34.7418 127.897 34.3263 128.642 33.4972C129.389 32.6663 129.764 31.6063 129.764 30.3174C129.764 29.0285 129.389 27.9686 128.642 27.1376C127.897 26.3067 126.982 25.8931 125.901 25.8931C124.82 25.8931 123.907 26.3085 123.16 27.1376C122.415 27.9686 122.04 29.0285 122.04 30.3174C122.04 31.6063 122.415 32.6663 123.16 33.4972Z" fill="white"/>
<path d="M133.553 35.8571C133.196 35.8571 132.907 35.5677 132.907 35.2106V25.7751C132.907 25.2243 133.353 24.7777 133.904 24.7777C134.263 24.7777 134.594 24.9702 134.771 25.2819L139.378 33.3782C139.384 33.389 139.395 33.3957 139.408 33.3957C139.427 33.3957 139.443 33.3797 139.442 33.3603L139.388 31.261V25.426C139.388 25.068 139.678 24.7777 140.036 24.7777C140.394 24.7777 140.684 25.068 140.684 25.426V35.0016C140.684 35.4741 140.301 35.8571 139.829 35.8571C139.521 35.8571 139.237 35.6917 139.085 35.424L134.21 26.8375C134.204 26.8267 134.192 26.82 134.18 26.82C134.16 26.82 134.145 26.8361 134.145 26.8555L134.2 28.9547V35.2106C134.2 35.5677 133.91 35.8571 133.553 35.8571Z" fill="white"/>
<path d="M85.558 30.7661C85.558 32.3135 85.141 33.5451 84.3052 34.4647C83.3568 35.5579 82.1191 36.1045 80.599 36.1045C79.1427 36.1045 77.9034 35.5505 76.886 34.4426C75.8669 33.3328 75.3574 31.9589 75.3574 30.3192C75.3574 28.6776 75.8669 27.3037 76.886 26.1958C77.9034 25.086 79.1427 24.5321 80.599 24.5321C81.3221 24.5321 82.0132 24.6872 82.669 24.9955C83.1446 25.2199 83.5515 25.4974 83.8892 25.8287C84.1123 26.0476 84.0936 26.4008 83.8833 26.6322C83.6112 26.9316 83.1365 26.904 82.8264 26.6441C82.2285 26.1431 81.4859 25.893 80.5973 25.893C79.5345 25.893 78.6164 26.3029 77.8411 27.1228C77.0659 27.9427 76.6792 29.0081 76.6792 30.3173C76.6792 31.6266 77.0659 32.692 77.8411 33.5119C78.6164 34.3318 79.5345 34.7417 80.5973 34.7417C81.724 34.7417 82.664 34.3299 83.4157 33.5045C83.5347 33.3734 83.6414 33.2297 83.736 33.0735C84.2676 32.1953 83.3837 31.2609 82.3572 31.2609H81.263C80.8953 31.2609 80.5973 30.9629 80.5973 30.5952C80.5973 30.2276 80.8953 29.9296 81.263 29.9296H84.6451C85.131 29.9296 85.558 30.2801 85.558 30.7661Z" stroke="white" stroke-width="0.204511" stroke-miterlimit="10"/>
<path d="M93.3104 25.4582C93.3104 25.834 93.0057 26.1387 92.6299 26.1387H90.4723C89.5025 26.1387 88.7162 26.9249 88.7162 27.8947C88.7162 28.8646 89.5025 29.6508 90.4723 29.6508H92.194C92.5617 29.6508 92.8597 29.9489 92.8597 30.3165C92.8597 30.6842 92.5617 30.9822 92.194 30.9822H90.4723C89.5025 30.9822 88.7162 31.7684 88.7162 32.7383C88.7162 33.7081 89.5025 34.4944 90.4723 34.4944H92.629C93.0053 34.4944 93.3104 34.7994 93.3104 35.1758C93.3104 35.5521 93.0053 35.8571 92.629 35.8571H90.365C88.7384 35.8571 87.4197 34.5385 87.4197 32.9118V27.7231C87.4197 26.0964 88.7384 24.7777 90.365 24.7777H92.6299C93.0057 24.7777 93.3104 25.0824 93.3104 25.4582Z" stroke="white" stroke-width="0.204511" stroke-miterlimit="10"/>
<path d="M98.7771 35.2089C98.7771 35.5669 98.4868 35.8571 98.1288 35.8571C97.7708 35.8571 97.4806 35.5669 97.4806 35.2089V27.5478C97.4806 26.7696 96.8496 26.1387 96.0714 26.1387H95.3427C94.9668 26.1387 94.6622 25.834 94.6622 25.4582C94.6622 25.0824 94.9668 24.7777 95.3426 24.7777H100.915C101.291 24.7777 101.595 25.0824 101.595 25.4582C101.595 25.834 101.291 26.1387 100.915 26.1387H100.186C99.408 26.1387 98.7771 26.7696 98.7771 27.5478V35.2089Z" stroke="white" stroke-width="0.204511" stroke-miterlimit="10"/>
<path d="M107.26 35.8571C106.902 35.8571 106.612 35.5669 106.612 35.2089V25.426C106.612 25.068 106.902 24.7777 107.26 24.7777C107.618 24.7777 107.908 25.068 107.908 25.426V35.2089C107.908 35.5669 107.618 35.8571 107.26 35.8571Z" stroke="white" stroke-width="0.204511" stroke-miterlimit="10"/>
<path d="M113.658 35.2089C113.658 35.5669 113.368 35.8571 113.01 35.8571C112.652 35.8571 112.361 35.5669 112.361 35.2089V27.5478C112.361 26.7696 111.73 26.1387 110.952 26.1387H110.223C109.848 26.1387 109.543 25.834 109.543 25.4582C109.543 25.0824 109.848 24.7777 110.223 24.7777H115.796C116.171 24.7777 116.476 25.0824 116.476 25.4582C116.476 25.834 116.171 26.1387 115.796 26.1387H115.067C114.289 26.1387 113.658 26.7696 113.658 27.5478V35.2089Z" stroke="white" stroke-width="0.204511" stroke-miterlimit="10"/>
<path d="M129.601 34.426C128.609 35.5451 127.376 36.1046 125.901 36.1046C124.426 36.1046 123.194 35.5451 122.203 34.426C121.211 33.307 120.717 31.9369 120.717 30.3174C120.717 28.698 121.211 27.3278 122.203 26.2088C123.194 25.0898 124.426 24.5284 125.901 24.5284C127.368 24.5284 128.598 25.0916 129.594 26.2162C130.589 27.3408 131.087 28.7072 131.087 30.3174C131.087 31.9369 130.591 33.307 129.601 34.426ZM123.16 33.4972C123.907 34.3282 124.82 34.7418 125.901 34.7418C126.982 34.7418 127.897 34.3263 128.642 33.4972C129.389 32.6663 129.764 31.6063 129.764 30.3174C129.764 29.0285 129.389 27.9686 128.642 27.1376C127.897 26.3067 126.982 25.8931 125.901 25.8931C124.82 25.8931 123.907 26.3085 123.16 27.1376C122.415 27.9686 122.04 29.0285 122.04 30.3174C122.04 31.6063 122.415 32.6663 123.16 33.4972Z" stroke="white" stroke-width="0.204511" stroke-miterlimit="10"/>
<path d="M133.553 35.8571C133.196 35.8571 132.907 35.5677 132.907 35.2106V25.7751C132.907 25.2243 133.353 24.7777 133.904 24.7777C134.263 24.7777 134.594 24.9702 134.771 25.2819L139.378 33.3782C139.384 33.389 139.395 33.3957 139.408 33.3957C139.427 33.3957 139.443 33.3797 139.442 33.3603L139.388 31.261V25.426C139.388 25.068 139.678 24.7777 140.036 24.7777C140.394 24.7777 140.684 25.068 140.684 25.426V35.0016C140.684 35.4741 140.301 35.8571 139.829 35.8571C139.521 35.8571 139.237 35.6917 139.085 35.424L134.21 26.8375C134.204 26.8267 134.192 26.82 134.18 26.82C134.16 26.82 134.145 26.8361 134.145 26.8555L134.2 28.9547V35.2106C134.2 35.5677 133.91 35.8571 133.553 35.8571Z" stroke="white" stroke-width="0.204511" stroke-miterlimit="10"/>
<defs>
<filter id="filter0_ii_44_494" x="23.1287" y="24.8749" width="41.147" height="50.7482" filterUnits="userSpaceOnUse" color-interpolation-filters="sRGB">
<feFlood flood-opacity="0" result="BackgroundImageFix"/>
<feBlend mode="normal" in="SourceGraphic" in2="BackgroundImageFix" result="shape"/>
<feColorMatrix in="SourceAlpha" type="matrix" values="0 0 0 0 0 0 0 0 0 0 0 0 0 0 0 0 0 0 127 0" result="hardAlpha"/>
<feOffset dy="-0.795"/>
<feComposite in2="hardAlpha" operator="arithmetic" k2="-1" k3="1"/>
<feColorMatrix type="matrix" values="0 0 0 0 0 0 0 0 0 0 0 0 0 0 0 0 0 0 0.12 0"/>
<feBlend mode="normal" in2="shape" result="effect1_innerShadow_44_494"/>
<feColorMatrix in="SourceAlpha" type="matrix" values="0 0 0 0 0 0 0 0 0 0 0 0 0 0 0 0 0 0 127 0" result="hardAlpha"/>
<feOffset dy="0.795"/>
<feComposite in2="hardAlpha" operator="arithmetic" k2="-1" k3="1"/>
<feColorMatrix type="matrix" values="0 0 0 0 1 0 0 0 0 1 0 0 0 0 1 0 0 0 0.25 0"/>
<feBlend mode="normal" in2="effect1_innerShadow_44_494" result="effect2_innerShadow_44_494"/>
</filter>
<filter id="filter1_i_44_494" x="25.7734" y="52.7271" width="25.3154" height="22.896" filterUnits="userSpaceOnUse" color-interpolation-filters="sRGB">
<feFlood flood-opacity="0" result="BackgroundImageFix"/>
<feBlend mode="normal" in="SourceGraphic" in2="BackgroundImageFix" result="shape"/>
<feColorMatrix in="SourceAlpha" type="matrix" values="0 0 0 0 0 0 0 0 0 0 0 0 0 0 0 0 0 0 127 0" result="hardAlpha"/>
<feOffset dy="-0.795"/>
<feComposite in2="hardAlpha" operator="arithmetic" k2="-1" k3="1"/>
<feColorMatrix type="matrix" values="0 0 0 0 0 0 0 0 0 0 0 0 0 0 0 0 0 0 0.08 0"/>
<feBlend mode="normal" in2="shape" result="effect1_innerShadow_44_494"/>
</filter>
<linearGradient id="paint0_linear_44_494" x1="44.2067" y1="27.6641" x2="10.8648" y2="57.373" gradientUnits="userSpaceOnUse">
<stop stop-color="#00A0FF"/>
<stop offset="0.0066" stop-color="#00A1FF"/>
<stop offset="0.2601" stop-color="#00BEFF"/>
<stop offset="0.5122" stop-color="#00D2FF"/>
<stop offset="0.7604" stop-color="#00DFFF"/>
<stop offset="1" stop-color="#00E3FF"/>
</linearGradient>
<linearGradient id="paint1_linear_44_494" x1="65.6492" y1="50.248" x2="22.5303" y2="50.248" gradientUnits="userSpaceOnUse">
<stop stop-color="#FFE000"/>
<stop offset="0.4087" stop-color="#FFBD00"/>
<stop offset="0.7754" stop-color="#FFA500"/>
<stop offset="1" stop-color="#FF9C00"/>
</linearGradient>
<linearGradient id="paint2_linear_44_494" x1="49.6014" y1="54.8358" x2="4.38565" y2="95.1248" gradientUnits="userSpaceOnUse">
<stop stop-color="#FF3A44"/>
<stop offset="1" stop-color="#C31162"/>
</linearGradient>
<linearGradient id="paint3_linear_44_494" x1="18.3604" y1="10.6002" x2="38.5505" y2="28.5903" gradientUnits="userSpaceOnUse">
<stop stop-color="#32A071"/>
<stop offset="0.0685" stop-color="#2DA771"/>
<stop offset="0.4762" stop-color="#15CF74"/>
<stop offset="0.8009" stop-color="#06E775"/>
<stop offset="1" stop-color="#00F076"/>
</linearGradient>
</defs>
</svg>
