<svg width="69" height="70" viewBox="0 0 69 70" fill="none" xmlns="http://www.w3.org/2000/svg">
<path d="M6.55333 33.1462C9.01541 32.6469 11.3543 32.6247 13.6679 33.1007C13.9784 33.1584 14.3045 33.2387 14.6184 33.2105C16.0772 33.1001 17.5515 33.0123 19.0089 32.7989C20.0963 32.6432 21.085 32.7581 22.0981 33.0901C24.2701 33.8145 26.5226 34.1714 28.8797 33.691C29.2007 33.6227 29.5361 33.6056 29.8526 33.6517C32.0131 33.9758 34.1616 34.3229 36.3102 34.6701C36.7843 34.7537 37.2421 34.9748 37.7244 34.9896C38.8205 35.0283 39.7824 35.4069 40.6528 36.016C41.4753 36.5857 42.3203 37.0064 43.3149 36.4231C43.5466 37.083 43.5884 37.6888 43.9029 37.9238C44.2221 38.176 44.7903 38.1035 45.2679 38.1011C45.6738 38.1057 46.1044 37.9039 46.4747 37.9778C46.9321 38.0673 47.4686 38.2414 47.7236 38.5919C47.963 38.9197 47.8735 39.5163 47.9161 39.9619C46.2316 40.6427 44.6657 40.2742 43.1146 40.2203C42.4352 40.1917 41.7253 39.826 41.1538 39.4293C40.4329 38.9265 39.7235 38.824 38.8666 38.9815C38.1481 39.1081 37.3473 39.236 36.7021 39.0352C35.5147 38.6718 34.3183 38.6691 33.1016 38.6267C32.2193 38.5958 31.3295 38.4735 30.4874 38.2588C28.9333 37.8673 27.2624 38.2044 25.7319 37.6351C25.3101 37.4763 24.7587 37.5428 24.2825 37.6482C22.0031 38.11 19.7584 38.1078 17.5284 37.6018C16.7508 37.4204 15.914 37.486 15.1032 37.4481C12.9229 37.3476 10.7259 37.253 8.53966 37.164C7.84356 37.1414 7.29861 36.9045 7.01423 36.1883C6.89425 35.8928 6.66815 35.6449 6.45277 35.4024C5.85444 34.7144 5.94738 34.0319 6.55333 33.1462Z" fill="white"/>
<path d="M24.7297 54.7211C24.7824 54.2224 24.8411 53.7121 24.8879 53.225C25.9504 52.5891 26.9294 51.9832 27.9192 51.3828C29.6315 51.5199 30.8525 50.0745 32.3905 49.6251C33.2568 49.3702 34.0821 48.9042 34.9351 48.5694C35.9384 48.1806 36.9287 47.8434 38.0256 47.7219C39.1119 47.5949 40.3029 47.3173 41.2409 46.5004C41.366 46.3896 41.5127 46.2898 41.6534 46.2016C42.8889 45.4942 43.6034 45.7453 44.154 47.0807C44.214 47.2285 44.3122 47.3813 44.3221 47.5471C44.4431 48.369 44.5582 49.2025 44.6843 50.1732C43.0006 51.2487 41.324 52.2841 39.3417 52.7238C37.4144 53.1625 35.5173 53.8068 33.5914 54.3485C32.8754 54.5494 32.1428 54.7563 31.4158 54.8201C30.7163 54.8834 30.0264 54.9809 29.3318 54.5062C28.8082 54.1488 27.9583 54.2661 27.2214 54.1641C27.2582 54.6212 27.2898 54.9297 27.3169 55.3527C26.2409 55.7771 25.19 56.2583 24.1006 56.6028C23.4778 56.8079 22.8057 56.8707 22.1504 56.9276C21.4675 56.9849 20.9428 56.6561 21.0901 56.2645C21.2195 55.9076 21.5111 55.4735 21.8129 55.3368C22.4941 55.0449 23.2293 54.9123 23.9441 54.7401C24.1768 54.6846 24.4395 54.7031 24.6818 54.6819C24.5949 54.7978 24.5139 54.9021 24.427 55.018C24.5617 54.9414 24.6427 54.837 24.7297 54.7211Z" fill="white"/>
<path d="M63.9632 32.3785C63.4397 31.4661 62.9053 30.5481 62.3818 29.6357C62.2584 29.4261 62.1432 29.1476 61.9377 29.071C60.7775 28.5756 60.2186 27.3089 59.2038 26.7424C57.4157 25.7483 56.1113 24.1853 54.4781 23.0226C53.2239 22.1282 51.9377 21.3488 50.5942 20.6276C49.4122 19.9895 48.1755 19.4839 47.336 18.2335C46.7924 17.4129 45.6824 17.0311 44.8455 16.41C44.2058 15.9344 43.5899 15.4127 43.0099 14.9532C43.1251 13.4349 43.2358 12.0312 43.3501 10.6731C44.2557 10.3946 44.6961 10.9136 45.2138 11.2825C46.9583 12.5463 48.7194 13.8041 50.4638 15.0679C51.1788 15.5823 51.87 16.1428 52.5564 16.6863C53.5035 17.4371 54.4624 18.1648 55.3809 18.9447C56.3687 19.7749 57.3637 20.5649 58.0585 21.7263C58.5113 22.4854 59.1835 23.1092 59.8056 23.751C61.4614 25.4512 62.6808 27.4963 63.8442 29.571C64.121 30.0641 64.3454 30.6326 64.411 31.1923C64.4523 31.5349 64.1343 31.9408 63.9763 32.3268L63.9632 32.3785Z" fill="white"/>
<path d="M24.7296 54.7211C24.6487 54.8255 24.5569 54.9243 24.47 55.0402C24.5569 54.9243 24.6379 54.8199 24.7248 54.704L24.7296 54.7211Z" fill="white"/>
</svg>
