<svg width="253" height="244" viewBox="0 0 253 244" fill="none" xmlns="http://www.w3.org/2000/svg">
<path d="M197.911 214.27C186.254 213 177.738 208.371 169.112 199.889C167.434 199.247 168.69 201.893 168.955 202.644C171.525 209.225 178.907 213.731 184.943 216.882C166.165 217.319 144.155 214.177 128.682 202.446C110.505 189.24 98.264 162.818 107.428 140.036C121.605 142.544 137.655 141.805 150.057 133.177C165.04 120.458 153.387 102.621 135.29 104.987C120.612 106.908 107.926 117.653 100.435 131.155C45.1878 112.436 36.6324 46.863 72.8956 2.75891C72.9422 2.70653 72.9783 2.6445 73.0018 2.5766C73.0253 2.50871 73.0357 2.43638 73.0323 2.36403C73.0289 2.29168 73.0118 2.22084 72.9821 2.15583C72.9523 2.09082 72.9105 2.03301 72.8592 1.98593C72.8121 1.93646 72.7562 1.89758 72.6949 1.87156C72.6336 1.84554 72.568 1.83291 72.5021 1.83439C72.4362 1.83588 72.3712 1.85145 72.311 1.88021C72.2507 1.90897 72.1964 1.95033 72.1512 2.00188C32.2794 46.4682 41.1089 115.781 97.6772 137.319C91.1296 154.334 94.6937 174.317 104.313 189.1C121.245 215.816 156.558 225.41 185.13 220.096C183.145 222.676 180.311 224.362 178.322 226.925C175.994 229.925 174.019 236.772 176.418 235.715C178.695 232.887 181.172 230.25 183.826 227.829C186.469 225.331 189.526 222.598 192.273 220.237L192.805 219.801L198.148 215.32C198.234 215.251 198.3 215.157 198.337 215.048C198.374 214.94 198.38 214.822 198.355 214.71C198.329 214.598 198.274 214.496 198.195 214.418C198.116 214.34 198.017 214.288 197.911 214.27ZM125.879 118.507C142.36 106.752 159.222 120.352 140.713 129.642C131.173 133.542 120.883 134.851 110.759 133.452C114.664 127.291 119.837 122.177 125.879 118.507Z" fill="white"/>
<path d="M41.0976 82.7403C41.1614 82.7129 41.2307 82.7032 41.299 82.7121C41.3672 82.7209 41.4323 82.7481 41.4883 82.791C41.5442 82.8339 41.5893 82.8912 41.6192 82.9577C41.6492 83.0241 41.6631 83.0976 41.6597 83.1713C41.1297 96.6236 48.1849 110.704 57.4938 117.247C57.5781 117.304 57.6386 117.394 57.6632 117.498C57.6878 117.602 57.6745 117.712 57.626 117.806C57.5766 117.9 57.4998 117.973 57.4074 118.015C57.315 118.057 57.2123 118.064 57.1154 118.037C44.4286 114.36 38.9462 96.2155 40.6332 83.4118C40.6516 83.2652 40.7064 83.1266 40.7918 83.0107C40.8773 82.8948 40.9904 82.8058 41.119 82.753L41.0976 82.7403Z" fill="white"/>
<path d="M163.709 109.982C170.492 113.013 169.992 124.041 164.041 127.936C164.002 127.964 163.955 127.976 163.908 127.971C163.861 127.967 163.817 127.945 163.783 127.91C163.749 127.875 163.727 127.829 163.721 127.779C163.715 127.729 163.724 127.678 163.748 127.635C166.63 122.032 167.391 115.518 163.471 110.337C163.439 110.299 163.42 110.25 163.417 110.199C163.415 110.148 163.429 110.098 163.456 110.056C163.484 110.015 163.525 109.985 163.571 109.971C163.617 109.958 163.665 109.962 163.709 109.982Z" fill="white"/>
<path d="M41.6956 78.5034C41.1626 78.2493 40.7371 77.7907 40.5025 77.2173C40.3172 76.7979 40.2539 76.3283 40.3209 75.8697C40.3868 75.4262 40.5765 75.0146 40.865 74.6895C41.2549 74.247 41.7625 73.9444 42.3185 73.8231C42.7034 74.2252 43.0078 74.7074 43.2131 75.2403C43.3528 75.5981 43.3965 75.9907 43.3393 76.3737C43.282 76.7567 43.1261 77.1149 42.8891 77.4077C42.5391 77.8291 42.1376 78.1976 41.6956 78.5034Z" fill="white"/>
<path d="M161.447 131.17C161.469 131.14 161.499 131.119 161.533 131.109C161.567 131.099 161.603 131.101 161.636 131.115C161.669 131.128 161.697 131.153 161.716 131.185C161.735 131.216 161.744 131.254 161.742 131.291C161.727 131.693 161.637 132.086 161.475 132.449C161.254 132.937 160.948 133.375 160.573 133.74C160.2 134.103 159.763 134.383 159.289 134.563C158.938 134.703 158.564 134.762 158.191 134.739C158.157 134.735 158.125 134.721 158.099 134.698C158.073 134.675 158.054 134.644 158.044 134.609C158.034 134.574 158.034 134.537 158.044 134.503C158.054 134.468 158.073 134.437 158.099 134.414C158.387 134.194 158.636 133.981 158.886 133.768C159.223 133.48 159.539 133.179 159.855 132.878C160.171 132.577 160.476 132.269 160.785 131.927C161.002 131.695 161.217 131.454 161.447 131.17Z" fill="white"/>
<path d="M126.683 192.101C133.848 199.273 146.058 205.89 155.911 206.165C155.933 206.163 155.956 206.17 155.974 206.185C155.991 206.201 156.003 206.223 156.005 206.247C156.007 206.272 156.001 206.296 155.986 206.315C155.972 206.334 155.951 206.346 155.928 206.348C146.147 208.656 131.955 201.104 126.558 192.222C126.547 192.204 126.543 192.182 126.546 192.161C126.549 192.14 126.559 192.12 126.574 192.106C126.589 192.091 126.608 192.083 126.628 192.082C126.648 192.081 126.667 192.088 126.683 192.101Z" fill="white"/>
</svg>
