<svg width="50" height="50" viewBox="0 0 50 50" fill="none" xmlns="http://www.w3.org/2000/svg">
<path d="M24.9999 4.16675C36.5061 4.16675 45.8332 13.4938 45.8332 25.0001C45.8332 36.5063 36.5061 45.8334 24.9999 45.8334C21.454 45.8384 17.9659 44.9347 14.8686 43.2084L14.2332 42.8376L7.91652 44.6959C7.57278 44.7972 7.20886 44.809 6.85926 44.7303C6.50967 44.6515 6.18598 44.4847 5.91889 44.2458C5.6518 44.0069 5.45015 43.7037 5.33307 43.365C5.21598 43.0263 5.18734 42.6634 5.24985 42.3105L5.30402 42.0834L7.16235 35.7667C5.19788 32.5194 4.16169 28.7954 4.16652 25.0001C4.16652 13.4938 13.4936 4.16675 24.9999 4.16675ZM24.9999 8.33341C22.0157 8.33287 19.0862 9.13353 16.5172 10.6518C13.9482 12.17 11.8339 14.3502 10.3952 16.9645C8.95646 19.5789 8.24603 22.5316 8.3381 25.5143C8.43017 28.497 9.32136 31.4003 10.9186 33.9209C11.3311 34.5709 11.5082 35.3709 11.3686 36.1647L11.2874 36.5042L10.3686 39.6313L13.4957 38.7126C14.3978 38.4459 15.3353 38.6084 16.079 39.0813C18.263 40.4642 20.7388 41.3201 23.3106 41.5814C25.8824 41.8427 28.4797 41.5021 30.8972 40.5867C33.3147 39.6713 35.4861 38.2061 37.2398 36.3069C38.9935 34.4078 40.2814 32.1267 41.0017 29.644C41.722 27.1614 41.8549 24.5452 41.3899 22.0024C40.925 19.4595 39.8749 17.0597 38.3228 14.9925C36.7706 12.9254 34.7588 11.2476 32.4466 10.0919C30.1343 8.93619 27.5849 8.33415 24.9999 8.33341ZM18.9624 14.9667C19.1932 14.8679 19.4457 14.8303 19.6954 14.8577C19.945 14.8851 20.1834 14.9765 20.3874 15.123C21.4374 15.8897 22.2707 16.9188 22.9874 17.923L23.6686 18.9105L23.9874 19.3792C24.1719 19.6479 24.2626 19.97 24.2453 20.2955C24.228 20.621 24.1036 20.9317 23.8915 21.1792L23.7353 21.3376L21.8103 22.7667C21.7187 22.8347 21.6543 22.933 21.6287 23.0441C21.6031 23.1553 21.618 23.2719 21.6707 23.373C22.1082 24.1647 22.8811 25.3459 23.7686 26.2334C24.6582 27.1209 25.8936 27.9459 26.7394 28.4313C26.9228 28.5355 27.1436 28.5022 27.2936 28.3667L27.3728 28.273L28.6249 26.3667C28.8544 26.0601 29.1939 25.8544 29.572 25.7931C29.95 25.7317 30.3372 25.8193 30.6519 26.0376L31.7832 26.8272C32.9082 27.6292 33.9894 28.4917 34.8457 29.5855C35.0041 29.791 35.1048 30.0351 35.1374 30.2926C35.17 30.5501 35.1333 30.8115 35.0311 31.0501C34.2061 32.9751 32.1165 34.6147 29.9457 34.5355L29.6144 34.5147L29.2165 34.4772L28.9915 34.448L28.4957 34.3647C26.5707 34.0022 23.4853 32.9105 20.2874 29.7147C17.0915 26.5167 15.9999 23.4313 15.6374 21.5063L15.554 21.0105L15.5019 20.5772L15.4749 20.2126L15.4665 20.0563C15.3874 17.8813 17.0353 15.7917 18.9624 14.9667Z" fill="white"/>
</svg>
